<svg id="Layer_1" xmlns="http://www.w3.org/2000/svg" viewBox="0 0 490.4 355.7" fill="#874B08">
<g>
	<g>
		<path d="M98.3,105.2c3.2,0.5,4.6,1.7,6.4,6.9c0.9-1.7,1.8-3,2.7-4.4c3.2-5.2,8.1,0.6,9.1,4.6c0.8,2.4,1.7,12.4-0.5,22
			c0.5-0.1,0.9-0.5,1.2-0.5c0.5,0,0,0.3-1.4,1.1c0,0-0.1,0.1-0.1,0.3c7.3-4.3,8.7-4.7,7.9-4.3c-3.2,2-2.3,1.4,1.8-1.1
			c9-5.3,33.9-19.7,6.4-3.2c-1.5,0.8-7.9,4.6-16.2,9.3c0,0.5-0.1,0.6-0.3,1.2c0.1,0,0.1-0.1,0.3-0.1c4-2.3,3.2-1.8-0.3,0.3
			c0,0.3-0.1,0.6-0.1,0.9c1.1-0.6,15.9-9.9,17.5-10.8c12.5-7.3,4.9-2.9,2.1-1.2c-0.6,0.3-16.8,10.5-19.7,12.2c0,0.1-0.1,0.6-0.1,0.8
			c2.1-1.2,3-1.8,3.5-2.3c0.5-0.5,1.2-0.8,1.8-0.9c16.6-9.1,22.9-13.9,21.4-12.5c-3,2.7-11.3,7.5-27,16.9v0.6
			c2.6-1.5,2.9-1.7,1.5-0.9c-0.5,0.3-0.9,0.6-1.5,0.9c0,0.5-0.3,1.1-0.3,1.5c1.8-1.1,5.2-3,1.2-0.6c-0.5,0.3-0.9,0.6-1.2,0.8
			c-1.5,7.8-3.8,18.5-6.7,28.7c-4.3,15.4-10.7,33.4-20.4,49.7c-7.2,12.2-15.4,21.2-28.4,29.4c-3.5,2-6.6,2.6-7.2,2.8
			c0,0-6.7,2.1-14,0.6c-5.6-1.4-11.3-5-14.6-11.3c-3.4-6.7-4-14-2.7-20.6c1.7-9.2,5.8-16.5,8.1-20.1c1.4-2.3,2.6-4.1,3.5-5.2
			c1.1-1.5,1.5-2.1,1.5-2c-0.1,0.3,2.3-2.9,6.9-7.6c4.9-5,11.1-10.8,20-17.1c9.1-6.4,18.5-12.5,28.2-18.8c-4.1,2.6,8.4-5,18-11
			c2.6-10.8,7-31.4-3.2-14.6c-1.2,2.1-12.7,18.3-22,10.7c-9.3-7.5-2.9-19.7,3.2-25.9C88.1,106.9,92.5,104.3,98.3,105.2z M24.8,230.6
			c0.3,4.3,1.1,6,0.6,3.8c-0.1-1.1-0.5-2.3-0.5-3.8c0-1.5-0.1-2.9-0.1-4v-0.9C24.8,225.7,24.7,227.4,24.8,230.6z M28,213.3
			c-2.3,5.6-2.3,8.2-1.8,6.4c0.1-0.9,0.5-2.1,1.1-3.8c0.6-1.7,1.4-3.5,2.1-5.3c1.1-2.6,1.8-4,1.8-4S29.6,209.5,28,213.3z M103.7,147
			c-18.8,11.3-31.4,20-40.6,26.4c-8.7,6.1-13.9,11.1-16.3,13.6c-2.7,2.7-3,3.2-3,3.2c0.3-0.2,5.8-6,13.1-11.7c2.6-2,4.9-3.7,6.4-4.7
			c4.1-2.9,4.3-2.9,0,0.2c-2.1,1.5-6.7,4.7-11.4,8.8c-6.6,5.8-10.7,10.8-12,12.5c0.9-1.2,3.2-3.7,6.4-6.9c4.1-4,7.6-6.9,8.2-7.3
			c1.2-1.1,0,0-1.8,1.5c-2,1.8-4.6,4.4-2.6,2.6c2.6-2.3,1.7-1.5,0.6-0.3c-1.8,1.8-1.5,1.7,0,0.5c1.1-0.9,2-1.8,2.3-2.3
			c0.3-0.5,2-2,6.2-5.2c1.7-1.2,3.4-2.3,4.7-3.2c1.4-0.9,2.4-1.8,2.9-2.1c0.9-0.6,1.8-1.1,1.8-1.1s-2,1.5-4.6,3.3
			c-2.9,2-6.1,4.3-6.6,4.6c-0.6,0.3-1.1,0.8-1.5,1.4c-0.1,0.3-1.4,1.2-4.4,4c-2.4,2.3-8.7,7.9-14.2,15.5c-2.4,3.3-5.2,7.8-7.3,12.8
			c-1.5,3.3-2.6,6.6-3,9.8c-1.2,14.9-0.5,12.5,1.1,0.2c0.1-0.8,0.3-1.4,0.5-2c0.8-4.1,0.3-1.1,0.5-1.8c-0.3,2,0.1,0.3,0.9-2
			c0.9-2.7,2.9-7.6,7.3-14.3c0.5-0.6,0.9-1.2,1.2-1.8c5.2-7.2,8.7-10.2,8.7-10.2s0,0.3-1.2,1.5c-0.6,0.6-4,4.3-7.2,8.8
			c-1.1,1.4-2.1,3.2-3.4,5.2c-4.1,6.7-6,12.2-6.7,16.8c-0.1,0.8-0.3,1.4-0.3,1.8c-2,11.4-0.9,19.8,5,22.9c4.7,2.4,13,1.2,21.5-5.3
			c7-3.8,13.9-11.1,19.1-18.2c1.1-1.4,2.4-3.3,1.4-2c-0.6,0.8-1.2,1.5-1.5,2l-0.5,0.5c0,0,0-0.3,0.3-0.6c0.5-0.8,1.7-2.3,3.2-4.6
			c13.6-20.3,18.9-37.2,29.1-73.3c0-0.1,0.3-0.6,0.3-0.8C105.5,145.9,104.4,146.6,103.7,147z M31.6,205.6c-1.1,1.8-3.8,6.9-2,3.5
			c0.5-0.9,1.2-1.8,1.8-3s1.2-2.4,1.8-3.3c0.8-1.2,1.1-1.7,1.1-1.7S31.9,205.1,31.6,205.6z M32.2,210.9c-0.3,0.6-0.6,1.4-0.9,2
			c-0.3,0.6-0.5,1.2-0.8,1.8c-0.6,1.5,0-0.5,0.6-2c0.5-1.2,1.2-2.4,1.2-2.4S32.3,210.6,32.2,210.9z M34.1,202.8
			c-0.8,1.1-0.9,1.7-0.8,1.4c0.1-0.2,0.5-0.5,0.6-0.8c0.1-0.3,0.6-0.9,0.8-1.2c0.1-0.3,0.1-0.5,0.1-0.5S34.6,202.1,34.1,202.8z
			 M39.8,201.3c0,0.2-0.1,0.3-0.3,0.5c-0.3,0.6-0.6,1.1-1.1,1.7c-0.3,0.5-0.6,0.8-0.9,1.1c0.1-0.2-2,2.9,1.1-1.5
			c0.3-0.5,0.6-0.9,0.8-1.2c0.6-0.8,0.8-1.1,0.8-1.1S39.9,201.1,39.8,201.3z M38.6,200.4c0,0.2-0.3,0.3-0.3,0.5
			c-0.1,0.2-0.3,0.5-0.5,0.6c-0.1,0.3-0.5,0.6-0.6,0.8c-0.1,0.3,0-0.2,0.8-1.2l0.1-0.2c0.5-0.6,0.6-0.9,0.6-0.9
			S38.7,200.1,38.6,200.4z M52.3,179.8c-3.7,3-6.9,6.2-9.9,9.5c-2.9,3-4.7,5.5-4.9,5.8s4-5,10.4-11c6.4-6,12-10.1,12-10.1
			S56.4,176.4,52.3,179.8z M38.7,195.7c-0.6,0.8-0.9,1.4-0.9,1.4s0.5-0.3,0.8-0.8l0.5-0.5c0.6-0.8,0.9-1.7,0.9-1.7L38.7,195.7z
			 M101.8,144.1c-16,9.6-29.4,18.4-40.7,26.5c-4.3,3-7.5,5.5-8.8,6.7c-2,1.7-3.8,3.3-5.6,5.2c2-1.8,4.1-3.7,6.2-5.3
			c10.1-8.2,0.8-0.2,4.1-3c-2.1,1.8,0.5-0.3,4.4-3l1.2-0.9c5.2-3.7,7.6-5.5,6-4.4c-1.1,0.6,0-0.2,5.5-3.8c6-4,7.3-4.7,6.9-4.3
			c-0.5,0.5-0.3,0.3,0.9-0.6c1.2-1.1,1.5-1.4,2-1.4s0.9-0.5,2-1.2c1.7-1.4,13.9-8.8,15.5-9.6c0.3-0.1-2.7,1.8-6.7,4.3
			c-4.1,2.6-7.8,5-8.7,5.6c-1.1,0.9,1.4-0.8,7.2-4.4c4.7-3,8.7-5.2,8.7-5.2s-5.8,3.5-12.8,7.9c-9,5.6-18.3,11.9-27.5,18.3
			c-6.6,4.7-11.9,9-15.9,13c-3.8,3.7-6.1,6.6-6.2,6.9c-0.5,0.8-0.1,0.3,0.9-0.8c0.3-0.3,2.7-3.2,6.4-6.6c4-3.7,8.8-7.6,15.1-12
			c0.9-0.6,1.8-1.4,2.7-2c13.7-9.5,26.4-17.1,29.9-19.4c3.2-2,4.9-2.9,4.3-2.4c-0.6,0.5-0.1,0.1,1.4-0.8c1.8-1.2,2.1-1.4,1.4-0.8
			c-2.1,1.8-0.9,1.2,3.2-1.4c0.3-0.1,0.8-0.5,1.1-0.6V144c-0.9,0.5-1.1,0.6,0,0c0-0.1,0.1-0.3,0.1-0.5c-0.9,0.5-1.2,0.6,0-0.1
			c0.1-0.6,0.5-1.2,0.6-2.1C105,142.1,103.5,143.2,101.8,144.1z M40.5,198.4c-0.8,0.9-1.1,1.5-0.9,1.4c0.1-0.2,0.5-0.5,0.6-0.8
			c0.1-0.3,0.6-0.8,0.8-1.1c0.1-0.3,0.3-0.5,0.3-0.5S41,197.8,40.5,198.4z M44.5,193.1l-0.9,0.9c-0.3,0.3-0.5,0.6-0.6,0.8
			c-0.3,0.2,0-0.3,0.9-1.2l0.9-0.9C44.8,192.6,44.7,192.8,44.5,193.1z M66,235.8c-9.5,8.8-26.7,16.2-19.4,13
			c3.7-2.3,13.6-8.7,16.8-11.1c1.7-1.2,1.1-0.9,2.7-2.1C66.2,235.5,66.2,235.6,66,235.8z M47.3,179.9l-1.1,1.1
			c-0.3,0.3-0.6,0.5-0.8,0.6c-0.3,0.2,0.1-0.3,1.2-1.2c0.6-0.6,1.1-0.8,1.1-0.8S47.6,179.6,47.3,179.9z M49.4,183.5
			c-0.9,0.9-1.5,1.2-1.2,1.1c0.1-0.2,0.5-0.3,0.8-0.6c0.3-0.3,0.8-0.6,1.1-0.9c0.1-0.2,0.3-0.5,0.3-0.5L49.4,183.5z M52.3,185.9
			c0,0-0.9,1.2-2.3,2.4c-1.7,1.5-2.6,2.4-0.8,0.5c1.1-1.2,1.8-2,2.3-2.4c0.3-0.3,0.6-0.5,0.6-0.5H52.3z M58.7,175.2
			c-1.1,0.8-1.5,1.2-1.2,1.1c0.1,0,0.5-0.5,0.8-0.6c0.3-0.2,0.8-0.5,1.1-0.8c0.3-0.2,0.5-0.5,0.5-0.5S59.5,174.8,58.7,175.2z
			 M62.4,174.9c-0.3,0.3-0.8,0.6-1.1,0.8c-0.3,0.2-0.6,0.6-0.8,0.6c-0.3,0.2,0.1-0.3,1.2-1.1c0.6-0.5,1.1-0.8,1.1-0.8
			S62.7,174.8,62.4,174.9z M61.6,245.4c2-0.2,17.1-13.3,16.6-13.6C78.2,231.6,63.4,243.5,61.6,245.4z M65.1,166.2
			c-1.4,0.9-1.8,1.4-1.2,0.9C64.2,167,64.6,166.5,65.1,166.2c0.5-0.3,1.1-0.6,1.4-0.9c0.1-0.2,0.3-0.2,0.3-0.2S66,165.6,65.1,166.2z
			 M106,144.7c-6.6,3.8-14.5,8.7-23.2,14.3c-21.6,14-15.1,10.2-13.6,9.4c3.2-2.1,7.6-5.2,12.2-8.2c9-6,11.4-7.2,11-6.9
			c-2.1,1.5,0.1,0,6-3.5c2.3-1.4,4.9-3,7.5-4.6c0-0.1,0.3-0.5,0.3-0.6L106,144.7L106,144.7z M97.6,149.3c-0.5,0-2.7,1.4-7.6,4.4
			c-1.8,1.1-4,2.4-6.4,4c-7.2,4.7-14.6,9.9-15.4,10.5c-0.1,0.2,5.5-3.7,12.7-8.4c8.1-5.3,13.3-8.4,13.3-8.4s1.2-0.5,2.3-1.1
			c1.2-0.8,1.5-1.1,1.4-1.1L97.6,149.3L97.6,149.3z M73.9,233.3c-1.1,1.1-3.2,2.9-4,3.8c0.8-0.8,6.4-5.6,7.3-6.6
			c0,0.2-2.7,3.8-2.6,3.7s0.5-0.6,0.6-0.8c4.7-5,10.1-11.4,9-12.7c-0.3,2.1-4,6.7-7.6,11c3.4-4.9,11.4-17.7,11.4-17.7
			S77,230.3,73.9,233.3z M75.6,166.7c-0.5,0.3-1.1,0.8-1.7,1.2s-1.5,0.9-2,1.2c-0.9,0.6-0.3,0.2,1.8-1.2l2.3-1.5
			C76.1,166.4,75.9,166.5,75.6,166.7z M74.9,161.7c-1.7,1.2-2.4,1.5-1.8,1.2l1.5-0.8c0.6-0.3,1.2-0.9,1.7-1.2
			c0.3-0.1,0.5-0.3,0.5-0.3S75.9,160.9,74.9,161.7z M77.9,163.8c-1.8,1.4-3.7,3-4.3,3.3c-0.3,0.2-0.3,0,0.5-0.6
			c1.1-0.9,1.2-1.1,0-0.3c-0.8,0.5,0.3-0.3,2.6-1.8l4.1-2.8C79.9,162.4,78.8,163,77.9,163.8z M76.4,234.8c2.4-2.3,13-17.5,12.4-18.9
			C89.2,217.5,74.4,237.4,76.4,234.8z M105.2,146.9c0,0-0.1,0.1-0.1,0.3c-0.1,0.3-0.1,0.6-0.3,0.9c0.6-0.3,0.6-0.3,0,0.1
			c-1.2,0.8-4.3,2.6-8.8,5.5c-7.6,4.7-11.6,7.5-11.3,7c0.3-0.3-1.2,0.5-4,2.1c-2.4,1.5-3.8,2.8-3.5,2.4c0.6-0.5,5.6-4.1,11-7.5
			c5.2-3.4,10.4-6.4,10.4-6.4s-1.7,1.2-4.4,2.9c-4.1,2.4-3.8,2.3-1.8,1.2c1.5-0.8,4-2.3,5.3-3.2c1.5-0.9,4.3-2.6,6.4-3.8
			c0.3-0.1,0.6-0.3,0.8-0.5v-0.3L105.2,146.9v-0.1V146.9z M83.7,154.3c-0.8,0.5-1.8,1.1-2.7,1.7c-0.9,0.6-1.8,1.4-2.4,1.7
			c-1.1,0.6-0.3,0,2.9-2c2.1-1.4,2.9-1.8,2.9-1.8S84.2,154,83.7,154.3z M79.3,221.7c1.1-1.2,5.3-5.6,12.7-21.3
			c4.4-9.5,8.1-20.4,8.1-20.4C93.9,195.2,89.6,206.9,79.3,221.7z M87.1,130.1c6.9-2,15.9-15.1,15.9-15.1s-1.8-1.7-4-1.7
			C89,113,82,131.3,87.1,130.1z M86.3,213.8c4.4-5.8,14.5-29.7,13-28.2C99.4,186.1,84.6,216.8,86.3,213.8z M88.3,130.7
			c5.6-0.6,11.4-6.9,15.9-14.5C96.5,125.8,94.2,128.7,88.3,130.7z M93.3,154.2c-0.6,0.5-1.5,1.1-2.3,1.5c-0.8,0.5-1.5,0.9-2,1.2
			c-0.9,0.5,0,0,2.4-1.5c1.5-0.9,2.3-1.5,2.3-1.5S93.6,154,93.3,154.2z M94.7,201.4c1.5-1.4,11.7-27.3,11.3-29.4
			C106.1,173.8,93.5,203.1,94.7,201.4z M97.6,144.7c-0.3,0.1-0.9,0.6-1.2,0.8s-0.6,0.6-0.8,0.6c-0.3,0.1,0.1-0.5,1.2-1.1
			c0.6-0.5,1.2-0.6,1.2-0.6S97.9,144.6,97.6,144.7z M98.8,180.6c-1.1,1.7-1.1,4-0.3,2.3c0.8-1.7,7.9-26.5,7.9-26.5
			S99.9,178.9,98.8,180.6z M104,175.2c-1.8,4.9-4.7,13-5.3,15.1c4.6-11.1,8.1-15.4,12.4-40.4c0.1-0.9,0.6-4.9,0.6-4.7
			C111.5,145.9,105.8,171.6,104,175.2z M98.9,185.1c1.7-2.9,2.9-8.2,2.9-8.2c0-0.2,0.1-0.3,0.1-0.3C101.8,176.8,97.9,188,98.9,185.1
			z M103.2,142.6c-6.4,4-2.4,1.5,3.5-2v-0.1C105.4,141.2,104.9,141.5,103.2,142.6z M104,170c-0.3,2-1.8,2.6-2.1,5.5
			c-0.3,2.6,1.5-1.8,0.5,0.3c1.4-3.2,4.4-15.5,4.4-15.5S104.3,168.1,104,170z M105.4,140.8c-0.3,0.1-0.9,0.6-1.2,0.8
			c-0.3,0.1-0.8,0.5-0.9,0.5c-0.3,0.1,0.3-0.3,1.4-0.9c0.6-0.3,1.2-0.8,1.2-0.8S105.7,140.6,105.4,140.8z M106.4,145
			c-0.1,0-0.5,0.3-0.6,0.3c0-0.1,0.3-0.5,0.3-0.6c0.1,0,0.1-0.1,0.3-0.1L106.4,145L106.4,145z M124.3,134.1c-0.5,0.1-3.8,2.6-9,5.5
			c0,0.1-0.1,0.3-0.1,0.5c0.6-0.3,1.4-0.9,2-1.2C122.4,135.7,124.7,133.9,124.3,134.1z M120.4,138.2c-0.5,0.3-1.2,0.8-1.8,1.1
			c-0.6,0.3-1.1,0.6-1.4,0.8c-0.8,0.3,0-0.1,1.8-1.2c1.1-0.6,1.8-1.1,1.8-1.1S120.8,138,120.4,138.2z M123.2,130.4
			c-0.5,0.3-1.1,0.8-1.7,1.1s-1.4,0.8-1.7,0.9c-0.8,0.3,0-0.1,1.8-1.2c1.1-0.6,2-0.9,2-0.9S123.5,130.2,123.2,130.4z M123.3,132.1
			c-0.3,0.1-0.8,0.6-1.2,0.9c-0.5,0.3-1.1,0.5-1.4,0.6c-0.8,0.3-0.3,0.1,1.2-0.8c1.1-0.6,1.7-0.9,1.7-0.9S123.5,131.9,123.3,132.1z
			 M131.3,126.1c-1.2,0.8-2.3,1.4-3,1.8c-0.8,0.5-1.4,0.8-1.8,0.9c-0.8,0.3,0-0.3,2.4-1.7c0.3-0.1,0.8-0.5,1.2-0.6
			c1.7-0.9,3-1.7,4.7-2.6C133.6,124.8,132.5,125.4,131.3,126.1z M131.9,126.4c-1.8,1.1-2.6,1.4-1.8,1.1l1.5-0.8
			c0.6-0.3,1.2-0.8,1.7-1.1l0.6-0.3C133.9,125.4,133,125.8,131.9,126.4z"/>
		<path d="M184.2,119.3c0.3-0.1,3.4-1.8,2.4-0.9c-1.7,1.8-6.2,5.2-6,5c0.8-0.3,7.3-4.4,7.5-4.1
			c0.1,0.3-4.6,4.1-10.2,7.3c-1.5,0.9-5.5,2.9-12.7,4.7c-2.3,4.1-6,10.4-11.9,14.6c-3.7,2.3-7.8,2.1-12.4-2.9
			c-9.5-10.2,9.5-30.8,9.8-31c2.6-1.8,4.1,1.2,7.9,0c1.2-0.6,5.2,0.5,7.9,4.1c1.7,2.3,0.8,9,0.6,9.3c3.2-0.9,5.2-2.3,10.2-4.3
			c1.5-0.6,4.9-2.1,5.5-2.6c1.8,0.8-11.3,6-10.4,5.3C170.6,125.8,176.9,123.5,184.2,119.3z M146.8,142.3c5,0.3,11-11.4,11.1-11.6
			c-4-0.8-5.6-3.7-6.7-5.2C151.2,125.5,141.2,141.8,146.8,142.3z M159.9,117.6h-0.1c-3.5,0.5-4.7,9.1-1.7,9.8c2.4-0.3,3.8-9.8,2-9.8
			H159.9z M173.5,125.4c-0.5,0.6,7.8-2.8,9.1-4.6C179.9,122.5,175.5,124.6,173.5,125.4z"/>
		<path d="M220.9,54.6c-3.4,7.9-5.5,12.8-6.9,16c0.5,0,0.9-0.1,1.5-0.1c8.7-0.3,23.9-1.2,34.9-1.2h4.4
			c12.5,0,23.6,0.5,37.2,1.2c1.2,0.3,2.1,0.3,0.9,0.5c-2.1,0.1-7.9,0.3-14.6,0.3c1.2,0.1,0.5,0,1.4,0.3c1.1-0.3,21.7,0.1,21.7,0.5
			c0,0.1-20.3,0.1-22.3,0.1c-3.8,0-5.3,0-4.9,0.1c2.6,0.1,40.3-0.3,28.4,0.3c-2.1,0-23,0-22.7,0c0.2,0,19.5,0.5,18.6,0.5
			c-1.2,0-1.4,0-0.5,0c0.6,0,1.2,0.3,1.2,0.3c0,0.1-1.7,0-4.4,0c-6.7-0.1-11.9-0.1-28.2-0.1c-12.7,0-17.7,0.1-18.1,0
			c-0.5-0.1-0.6-0.1-0.6,0s-0.9,0.1-2.3,0.1c-1.2,0-2.6,0-2.7-0.1s-0.5,0-0.5,0.1s-0.6,0.5-3.4,0.5c-2.4,0-2.9,0-2.1-0.1
			c0.8-0.1,0.6-0.1-0.8-0.1c-0.9,0-2.1,0.1-2.6,0.3s-2.3,0.1-4.9,0.1c-2.3,0-3.8,0.3-3.4,0.3s-4.3,0.1-10.1,0.5
			c-0.1,0-0.5,0.3-0.6,0.3c3.2-0.1,10.5-0.6,11.9-0.6c1.5,0,6.6-0.1,6.4-0.1c-0.5-0.1,0.9-0.1,1.8,0c0.8,0.1,1.1,0.1,1.2,0
			s1.1-0.3,2.1-0.3h1.8c-0.6,0-1.1,0.1-1.7,0.1c-1.7,0.1-1.5,0.1,0.6,0.1c1.4,0,2.1-0.1,2.1-0.3s0.3-0.1,0.6,0
			c0.3,0,0.9,0.3,1.5,0.3s-2,0.1-5.6,0.1s-7,0.5-7.2,0.5c-0.1,0,0.5,0.1,1.4,0.1c2.3,0,2.3,0.1,0.3,0.5h-0.1c-0.9,0-2.1,0.1-3,0.1
			h-0.3c-0.5,0-0.9-0.1-1.4-0.1c-1.2,0-2.1,0.1-3.2,0.1h0.1H224h-0.1c-0.9,0-1.7,0.1-2.6,0.1c0.5,0-0.1,0-0.8,0h-0.9H218
			c-0.3,0-0.3-0.1,0.5-0.1c1.7,0,1.7-0.3-0.6-0.3c-1.4,0-1.7,0.1-1.4,0.3c0.1,0,0,0.3,0,0.3h-2c-0.6,0-1.2,0.1-1.8,0.1v0.1
			c0,0-0.8,0.1-1.2,0.1c-7.9,16.2-35.2,74.4-23.9,88.6c2.3,2.8,11.1-5.6,13.4-9.1c1.1,1.2-5.8,8.5-7.8,8.5c-0.8,1.4,2,0.6,5.2-3
			c1.8-2.6,4.3-2.8,3,0.9c-1.8,3.1-5.3,6.7-9.3,6.7s-7.2-0.9-9.8-4.3c-4.6-6-4.9-18.5-1.5-30.8c5.6-19.7,13.1-38.1,21.2-56.6
			c-2.3,0.1-3.4,0.3-6.2,0.3c-9.5,0.8-19.4,1.7-22.7,2.3c-0.8,0.1,1.5,1.1,1.1,1.2c-4.6,1.2-9,0.3-9-1.8c0-2.4,0.3-3.8,3.4-4.9
			c0.8,0,1.4,0.1,2,0.1c7.5-0.8,7.8-1.1,18-2c5.2-0.5,10.4-0.9,15.5-1.2c0.1,0,0.5-0.1,0.6-0.1c2.9-6.7,5.3-12.7,9.6-20.4
			c0.5-1.7,1.5-2.4,2.7-2.4h0.3C220,48.4,223.1,51.4,220.9,54.6z M187.2,125.1c0.2,1-1.8,8.9-2.4,7.6c-0.3-1,1.7-6,2.2-7.2l-0.1,0.1
			c-0.4,0.8,2.9-8.5,2.5-7.9c-8.4,19.2-7.9,27.7-7.2,28.2c-0.4-1.9,1.2-11.5,1.6-10.8c-0.2,0.3-1.6,13.1-0.7,11.5
			c0-0.1,0.3-0.1,0.5-0.9c-0.7,1,0.4-4,0-3.9c-0.4,0.1-0.1-1.5,0.6-3.9c-0.1,0-0.1-0.1-0.2-0.2c-0.4-1.1,1.1-4.4,1.1-4.4
			c0.1,0.1,0.3,0.3,0.3,0.7c3.1-10.1,9.1-26.6,9.9-27.7C192.4,110.5,190.2,120.1,187.2,125.1z M183.3,161.5c0.1,0-0.1-1.8-0.9-5.5
			C182,159.8,183.1,161.5,183.3,161.5z M186.3,77.5c-1.7,0.1-1.8,0.1-1.2-0.1C185.4,77.3,186,77.5,186.3,77.5z M191.7,75.1
			c0.1,0,0.1,0.1,0,0.1c-0.6,0.1-3.4,0.6-6.4,0.6c0.6-0.1,4.9-0.8,6.2-0.8L191.7,75.1L191.7,75.1z M198.8,73.1l-3.5,0.3h0.1
			c-1.4,0.1-6.7,0.6-7.2,0.6c-2.3,0,6.6-0.9,9.9-0.9L198.8,73.1L198.8,73.1z M199,162.3c0,0-2.9,3.1-3.7,3.1h-0.1h0.1
			c0.1,0,0.5,0.3,1.1,0.2c0.8,0,2-1.1,3-2.8c0.3-0.6,0.1-1.1,0.1-1.1C199.4,161.7,199,162.3,199,162.3z M199.9,73.1
			c-0.3,0-0.3-0.1,0-0.1V73.1z M206.1,78.9c0,0-4.3,8.8-4.4,10.5c-0.1,1.8,6.2-10.8,4.7-10.7C206.4,78.7,206.3,78.9,206.1,78.9z
			 M215.6,75.7c0,0-1.1,0.3-2.7,0.3v-0.1c0.1,0,0.3-0.1,0.5-0.1h1.4H215.6z M229,75.2c-0.1,0-2.1,0.3-4.3,0.3s-3.7,0-3.5,0
			s2.1-0.3,4.3-0.3c0.1,0,0.3-0.1,0.5-0.1h2.3C228.7,75.1,229,75.2,229,75.2z M223.5,74.9c0.6,0,0.3,0.1-0.8,0.1s-1.7-0.1-1.2-0.1
			h0.9h0.6H223.5z M236.9,74.9H236c-1.7,0-1.8,0.3-1.2,0.3h1.7c0.6,0,1.2,0,2.1-0.1c0.8,0,0.8-0.1-0.3-0.1H236.9z M241.1,73.2
			c0,0-0.5,0.1-0.8,0.1c-0.3,0-0.8-0.1-0.8-0.1s0.5-0.1,0.8-0.1C240.6,73.1,241.1,73.2,241.1,73.2z M250.5,72.9h-1.7h-3
			c0,0,1.2-0.1,2.6-0.1h0.9C250.1,72.8,250.7,72.9,250.5,72.9z M249.4,72.3c0.9,0,0.5,0-1.1,0c-1.5,0-2.3,0-1.7,0h1.4h0.6H249.4z
			 M247.5,74.1c-0.1,0,0,0.1,0.6,0.1h0.3c0.8,0,0.8-0.1,0.3-0.1h-0.3h-0.3H247.5z M265.2,73.7h-7c-5.5,0-6.9,0.1-7,0.3
			c-0.3,0.1,0.5,0.1,4.6,0.1c6.4-0.1,7.8,0,5.2,0.1c-1.8,0.1-1.8,0.1,1.2,0.1c2.6,0,3.2,0,2.1,0.1c-1.7,0.1-5.2,0-5.8-0.1h-4.1
			c-2.1,0-3.2,0.1-2.8,0.1c2,0.1,1.4,0.5-0.8,0.5c-1.7,0-2,0-1.7-0.3c0.3-0.3,0.3-0.3-0.6-0.1c-0.6,0.1-0.9,0.5-0.8,0.5
			c0,0,0.1,0.1,0,0.1c0.9,0,1.8-0.1,2.7-0.1h5.6c2,0,3.7-0.1,5.6-0.1h7.8h2.1c0.5,0,0.9-0.1,1.1-0.1h1.2h0.5h-0.2h1.2
			c-0.3,0-0.9-0.3-1.4-0.3c-2-0.3-3.2-0.3-6.4,0c-0.9,0-1.1,0.1-0.5,0c0.8-0.1,0.8-0.3,0-0.3c-0.3,0,1.5-0.1,4.6-0.1h3.3
			c5.2,0,9.2,0.1,9.6,0.1c0.5,0.1,0.3,0.1-0.6,0.1c-0.8,0-2.7-0.1-4.6-0.1c-3.2,0-3.2,0-2.9,0.3l0.2,0.1h4.1h5.6h4.9h1.2
			c-0.6-0.1-1.7-0.1-2.1-0.1h-1.4c-0.2,0,4.1-0.3,11.6-0.3c0.9,0,1.7-0.1,2.4-0.1c-0.3,0-0.5-0.1-0.8-0.1c0.2,0,0-0.1-0.3-0.1
			c-0.3,0-0.8,0-0.8,0.1s-0.3,0.1-0.8,0s-1.5-0.1-3.8-0.1h-3.2c0,0-3.2-0.1-7.3-0.1C281.3,73.5,273.7,73.7,265.2,73.7z M265.5,74.1
			c0.5,0,0,0-0.9,0c-0.9,0-1.2,0-0.8,0h0.8H265.5z M281,71.8c0.6,0,0.3,0.1-0.8,0.1s-1.7-0.1-1.2-0.1h0.9H281z M283.1,74.4
			c0.6,0,0.2,0.1-0.9,0.1s-1.7-0.1-1.2-0.1h1.1H283.1z M295.3,73.1c0.5,0,0.3,0.1-0.5,0.1h-0.3c-0.6,0-0.8-0.1-0.6-0.1h0.5H295.3z"
			/>
		<path d="M253.6,82.8c-0.9,0.6-3,5.3-4,6c-0.5,0.3,0.3-3.2-0.1-2.9c-7.5,6.4-21.6,19.5-32.9,52c2.7-1.7,5-3.7,8.8-3.8
			c13-6.4,18.6-11.7,39-19.8c-12.8,6.9-19.1,9.8-26.4,14.3c-8.7,4.3,24.7-13,25.6-13.4c0.3,0,0.6-0.1,0.6-0.3
			c4.3-2.4,4.7-2.4,0.8-0.1c-7.6,4.3,4.4-2.3,3.7-0.8c-0.2,0.1-7.8,4.1-9.5,5.3c-1.5,1.2,13-5.6,11.3-4.6
			c-0.5,0.1-32.5,17.4-32.2,17.4c9-4.9,22.9-11.9,23.5-12.2c1.5-0.8-6.9,4.3-12.2,7.3c-4.1,2.3-14,8.4-18,10.4
			c11.1,18.1-7.8,65.6-24.7,65.6c-9.5,0-10.4-9.5-10.5-14.3c-1.1-23.6,16.2-73.3,39.3-100.6c3.2-3.4,9-9.3,13.3-10.5
			C252.5,76.6,253.7,79,253.6,82.8z M200.7,190.8c-0.3-2.7,0-15.4,0.8-15.9v-0.2C200.5,174.8,199.1,187.4,200.7,190.8z M218.6,146.6
			c-1.1,0.5-3.7-1.7-3.8-2.6c-2.1,1.2-11.7,31.9-12,45c-0.8,23.2,14.8,3.2,22.1-19.1c3.2-9.9,4.7-23.9,2.1-27.8
			C225.7,140.9,221.7,145.2,218.6,146.6z M203.1,172c0,1.4,5.3-20,3.4-16C206.4,156,203.1,170.6,203.1,172z M210.9,133.4
			c-0.6,1.5-2.1,5.8-2.9,8.8c-0.6,1.7-5.2,11.3-3.4,10.2c0,0.5,2.9-8.1,3.5-10.2c1.8-5,5.3-13.9,5.3-13.9S212.1,131,210.9,133.4z
			 M231.5,159.7c-0.2-3.2,0.3,3.6-5.3,16.9c-4.1,9.9-9.7,16.9-10.2,17.1C223.2,189.5,231.5,166.6,231.5,159.7z M217,127.8
			c1.2-2,8.1-15.2,9.9-18.5c12.8-19.8,7.8-9.9,11.1-16.5C227.9,104.3,220.3,119,217,127.8z M237.4,130.7c0.8-0.1,6.1-3,12.2-6.6
			c1.2-0.6,3.5-1.7,5-2.6C258,119.6,241.1,127.3,237.4,130.7z M239.7,90.7c0,0,2.3-2.4,2.6-3c0.3-0.6,5.3-4.9,4.6-4.9
			C242.1,86.3,240.3,89.5,239.7,90.7z"/>
		<path d="M278.3,102.3c1.8,7.8-11.3,14-8.4,18.9c5,8.7,14.3,11.1,13,20.3c-4.7,14.6-9.3,23.6-5.8,25.6
			c4.9,0.6,14.9-8.1,24.4-18.3c9-9.8,24.1-25.9,34.8-36.6c-5,6.9-17.4,18-23.3,26.4c3.8-4.3,22-23.2,22-23.2l-16,19.8
			c0,0-1.1,1.5-0.9,1.5c5.5-7.3,9.5-9.3,13.7-15.7c-2.7,5.3-9,12.3-14.6,19.8c-9,11.9-22.6,26.1-32.8,30.5
			c-7.6,3.3-15.9-4.3-14.6-13c1.2-9.9,10.2-19.5,1.2-29.9c-6.4-7.2-16.2-15.4-9.8-25.5c2.3-3.4,6.4-6.2,10.1-6.2
			C273.8,96.8,276.6,98.5,278.3,102.3z M273.2,152.5c-2.3,5.8-1.7,9.9-0.5,11.1c-0.2-0.5-1.1-5.6,1.1-10.8c2.6-6.6,3.2-9,3.7-12
			c-0.2,0-0.2-2.1-0.5-2.1C276.4,144.4,275.2,147.5,273.2,152.5z M288.2,165.2c1.7-0.9,2.4-1.1,10.2-8.1
			c3.2-2.1,17.8-18.9,16.8-18.8C311.2,143.2,297.6,158.1,288.2,165.2z"/>
		<path d="M348.9,99.9c6.6,0.8,9.6,8.1,9,11.3c-1.1,4.4-4.6,8.4-10.8,12.7c-5.8,4-12.2,2.1-12.2,2.1
			c-2.6,3.2-3.3,11.6,2.7,11.9c6.4,0.1,18.9-9,25.9-14.6c-1.8,1.7-4.1,3.7-7,6.4c-1.5,1.4-1.7,1.5,7.8-5.8c7.2-5.3,14.9-12.2,4-2.6
			c-11.1,10.1,26.8-22,4.1-1.5c16-12.4,4-2.1,2.6-0.1c-4.7,4.1-4.3,3.5-6.9,5.5c-0.5,0.3-4.9,3.7-3.2,2.9c1.2-0.6,2.4-1.5,5-3.8
			c1.4-0.8,2.7-1.8,2.9-1.8c-9.3,8.8-22.9,19.8-35.4,20.6c-4.1,0.1-8.8-2.9-10.7-6.9c-3.7-7.9-0.8-23.8,12-32.9
			c3.3-2.4,6.4-3.2,9-3.2H348.9z M327.4,130.1c0.2,4.4,2.6,6.9,3.5,7.8c-0.9-1.1-3-4.1-3-7.8c0.2-4,3-12.3,3-12.3
			S327.1,124.9,327.4,130.1z M338,118.8c2.4,0.9,14.5-9.3,11.7-11.9h-0.5C345.8,106.9,336.1,118.1,338,118.8z M341.4,138.6
			c-0.5,2.1,13.4-6.9,12.5-7.2C351.3,133.9,341.7,139.1,341.4,138.6z"/>
		<path d="M451.2,25.5c5.5,16.9-39.2,85.9-47.3,88.9c-1.8,5-4.3,21.2-1.1,23.8c3.2,4.6,12.8-2.1,19.4-9
			c3.8-3.5-2.1-0.3,3.8-3.7c1.1-0.3,1.5-2.9,3-3.2c1.7-1.4,1.8-1.7,1.7-1.8c-0.3-0.9,6.2-4.9,6.9-6.6c9.6-8.1-14.3,19.5-21,24.8
			c9.9-6.6,18.9-21.2,19.2-19.1c0.6-1.1,1.2-2,1.5-2.1h0.5v0.3c-0.2,0.3-0.6,0.8-0.8,1.1c0.3-0.3,0.6-0.5,0.9-0.8
			c2.4-2.9,2.4-3.5,1.7-1.7c-0.6,0.6-1.1,1.4-1.5,1.8c-0.9,1.2-1.8,2.4-2.9,3.8c-0.5,0.6-1.1,1.4-1.4,1.7
			c-7.3,9.3-14.5,17.7-25.2,20c-7.5,1.7-11.6-2.4-13-10.7c-0.5-2.9-0.6-6-0.3-9.1c-4.7,5.8-10.2,11-14.6,12.3
			c-6,1.8-10.4,0.1-11.7-7.8c-0.8-4.6,3.5-15.9,13.6-21.6c4.6-2.6,11-2,15.9,1.2c0.6-2.4,1.2-4.6,1.5-6.2
			c6.4-22.4,12.5-40.3,24.7-60.5c5.6-9.5,11.9-20.4,19.5-21.4h0.3C446.3,20,450,20.9,451.2,25.5z M389,110.6
			c-6.7,2.4-10.8,9.9-12.7,14.9c-2,5.2-0.5,8.2,6.4,2.7c5-4.3,8.7-7.8,13.1-12.3C396.3,113.3,391.9,109.5,389,110.6z M380.1,131.9
			c-2.9,3.2,9.9-4,16.2-12.5C393.4,122.6,381.9,132.7,380.1,131.9z M401.2,136.9c0,0-1.8-0.5-1.4-9.9c0.2-4.7,0.8-5.3,1.1-10.1
			C397.7,130.4,399.8,137.9,401.2,136.9z M401.3,105.4v1.1c-0.6,2.4-0.9,3-0.9,3.2c0.3,0.6,0.6,0.5,0.9-3.2
			c2.4-8.1,7.9-25.3,7.9-25.3S401.6,101,401.3,105.4z M402.7,108.3c0.6-0.9,2.9-12.7,7.5-25.6c1.7-4.9,5-11.4,7.3-18.5
			c4.3-10.1,11.3-23,13.4-26.2C417,56.3,400.1,111.6,402.7,108.3z M408.5,93.5c-1.2,3.4-3.8,11.9-3.8,12l8.1-23.5
			C407.3,95.8,410,89.4,408.5,93.5z M445.5,26.6c-5.8,0.5-23,35.2-29.4,50.9c-1.8,4.3-6,14.9-9.6,26.2l0.3-0.1
			c11.1-9.6,48.5-78.2,39.2-76.9c-0.2,0-0.2-0.1-0.3-0.1L445.5,26.6L445.5,26.6z M414.9,98.2c1.1-0.9,11.6-18,11.9-18.8
			C426.8,79.5,413.8,99.1,414.9,98.2z M422.2,58.4c-1.2,1.7-3.5,7.3-5.2,11.6c2.6-5.5,6.4-13.1,6.4-13.1l0.2-0.5
			C423.6,56.4,423.3,56.9,422.2,58.4z M417.9,134.8c3.8-3.2,11.1-12,15.1-15.1C430,124.6,421.3,131.9,417.9,134.8z M428,79.5
			c0,0.1-10.1,16.5-8.8,14.8c2.7-2.9,9.8-15.7,9.6-15.9C428.8,78.4,428.5,78.7,428,79.5z M435.8,61.8c0.2,0-12.8,21.2-11.9,20.6
			c2.6-2.4,12.3-20.7,12-20.7L435.8,61.8z M424.8,53.8c-4.6,9.1,12.2-24.7,17.7-28.2c0,0-0.2-0.1-0.3-0.1
			C439.9,25.6,427.7,44.9,424.8,53.8z M448.6,32.7c0.8,1.2-3.2,13.4-8.1,23.2c-7.6,15.3-15.4,25.6-11.1,21.5
			C442,56.9,450.9,32.2,449.2,32C449,32.1,448.9,32.3,448.6,32.7z M439.6,114.5c-0.3,0.5-2,2.4-2,2.4s1.4-2.3,1.7-2.8
			C439.7,113.8,443.4,109.5,439.6,114.5z"/>
		<path d="M468.1,133.6c1.7,0.8,6.2,6.4-5.5,11c-5.2,2-1.7-3.5-1.8-5.6c-0.2-3.2,3.3-5.5,6-5.5
			C467.2,133.4,467.8,133.4,468.1,133.6z"/>
	</g>
</g>
<g>
	<g>
		<path d="M168.3,300.3h-3.8l-5.7,34.8h4.5l3.2-23.2l3.2,23.2h4.2L168.3,300.3z"/>
		<path d="M197.2,300.3h-3.8l-5.7,34.8h4.5l3.2-23.2l3.2,23.2h4.2L197.2,300.3z"/>
		<path d="M232.6,335.1h-4.2v-12.3c0-0.5-0.1-1-0.3-1.5c-0.2-0.5-0.5-0.8-0.8-1.2c-0.3-0.3-0.7-0.6-1.2-0.8
			c-0.5-0.2-0.9-0.3-1.4-0.3h-2.5v16.1h-4.2v-34.8h7.2c0.9,0,1.8,0.2,2.6,0.6s1.6,0.9,2.2,1.6s1.2,1.4,1.6,2.2
			c0.4,0.8,0.6,1.7,0.6,2.5v4.8c0,1.1-0.3,2.1-0.9,3c-0.6,0.9-1.4,1.5-2.4,1.8c1,0.4,1.8,1.1,2.5,2c0.7,0.9,1,2.1,1,3.5L232.6,335.1
			L232.6,335.1z M228.2,308c0-1.1-0.3-2-1-2.7s-1.5-1.1-2.7-1.1h-2.2v11.2h2.2c0.5,0,0.9-0.1,1.4-0.3c0.5-0.2,0.8-0.5,1.2-0.8
			c0.3-0.3,0.6-0.8,0.8-1.2s0.3-0.9,0.3-1.5L228.2,308L228.2,308z"/>
		<path d="M263.4,335.1h-4.2v-15.7h-6.1v15.7H249v-34.8h4.2v15.2h6.1v-15.2h4.2V335.1z"/>
		<path d="M293.9,329c0,0.9-0.2,1.8-0.6,2.6s-0.9,1.5-1.5,2.2s-1.4,1.1-2.3,1.4s-1.8,0.5-2.8,0.5s-1.9-0.2-2.8-0.5
			c-0.9-0.3-1.7-0.8-2.3-1.4c-0.7-0.6-1.2-1.3-1.6-2.2c-0.4-0.8-0.6-1.7-0.6-2.6v-28.7h4.2V329c0,0.8,0.3,1.5,0.9,2
			c0.6,0.5,1.3,0.8,2.2,0.8c0.8,0,1.5-0.3,2.1-0.8s0.9-1.2,0.9-2v-28.7h4.2L293.9,329L293.9,329z"/>
		<path d="M316.9,299.8c2.1,0,3.9,0.6,5.2,1.7s2,2.8,2,5.1v1.9l-4.2-0.9v-1c0-0.8-0.3-1.5-0.9-2s-1.3-0.8-2.2-0.8
			c-0.6,0-1.1,0.1-1.5,0.3s-0.7,0.5-1,0.9c-0.2,0.4-0.4,0.8-0.5,1.2c-0.1,0.5-0.1,0.9-0.1,1.4c0,0.7,0.2,1.5,0.5,2.2
			c0.3,0.8,0.7,1.5,1.2,2.2s1.1,1.5,1.7,2.2c0.6,0.7,1.1,1.4,1.7,2c0.7,0.8,1.3,1.7,2,2.6c0.7,0.9,1.3,1.8,1.8,2.8
			c0.5,0.9,1,1.9,1.3,2.9s0.5,2.1,0.5,3.1c0,1-0.1,2.1-0.4,3c-0.3,1-0.7,1.9-1.3,2.6c-0.6,0.8-1.3,1.4-2.3,1.8
			c-0.9,0.5-2,0.7-3.3,0.7c-1,0-1.9-0.2-2.8-0.5c-0.9-0.3-1.7-0.8-2.4-1.5c-0.7-0.6-1.2-1.3-1.6-2.2s-0.6-1.7-0.6-2.7v-1.9l4.2,0.9
			v1c0,0.8,0.3,1.5,1,2c0.7,0.5,1.4,0.8,2.2,0.8c1.1,0,1.9-0.3,2.4-0.9s0.8-1.4,0.8-2.4c0-1.3-0.2-2.5-0.7-3.7s-1.1-2.3-1.8-3.4
			c-0.7-1.1-1.6-2.2-2.4-3.2s-1.7-2.1-2.5-3.2c-0.5-0.6-0.9-1.2-1.3-1.8s-0.7-1.2-1-1.8s-0.5-1.3-0.6-2s-0.2-1.5-0.2-2.4
			c0-2.1,0.6-3.8,1.9-5.1C312.8,300.4,314.6,299.8,316.9,299.8z"/>
	</g>
</g>
<g>
	<path d="M98.5,246.2c-0.7,0-1.3,0-1.3,0c0,0,0,0,0,0C97.7,246.2,98.1,246.2,98.5,246.2z"/>
	<path d="M99.8,245.8c-0.1,0-0.3,0-0.4,0c0,0,0,0,0.1,0C99.5,245.8,99.6,245.8,99.8,245.8z"/>
	<path d="M97.2,246.2c0.1,0.1,0.6,0.2,0,0.3c-0.7,0-2.2,0-2.9,0c-0.7,0.1,0,0.1,0,0.2c-0.7,0-1.5,0-1.5,0
		c-0.5,0.1,0.3,0.1,1.7,0.2C97.7,246.5,105.7,246.4,97.2,246.2z"/>
	<path d="M103,245.9c-1.3,0-2.6,0-3.8,0c-0.4,0.1-0.9,0.1-0.5,0.2C100.6,246.1,101.8,246.1,103,245.9z"/>
	<path d="M400.5,245.8c0,0,0.1,0,0.7,0C401,245.8,400.7,245.8,400.5,245.8c0,0,0,0-0.3,0c2.5,0,5.5-0.1,8.4-0.1
		c0.4,0,0.7-0.1,1.1-0.1c-7.1,0-14.3,0-20.1,0.2C393.7,245.9,396.5,245.8,400.5,245.8z"/>
	<path d="M410.2,245.5c0.2,0,0.5,0,0.7,0C410.3,245.5,410.2,245.5,410.2,245.5z"/>
	<path d="M283,246.2c-4.4,0-8.3,0.1-12.2,0.2c8.3-0.1,16.8-0.1,23.1-0.2C290.3,246.2,286.6,246.2,283,246.2z"/>
	<path d="M251.3,246.8c5.5,0,10,0,14.2-0.1c-4.4,0-8.7,0-13,0.1C252.1,246.8,251.7,246.8,251.3,246.8z"/>
	<path d="M257.4,246.6c5,0,9.2-0.1,13.4-0.2C266.1,246.5,261.5,246.5,257.4,246.6z"/>
	<path d="M356.2,243.9c3.3-0.1,5.3-0.1,6.4-0.1c0.5,0,1.2-0.1,2.1-0.2c-0.2,0-0.4,0-0.6,0c-3.4,0-6.8,0.1-10.3,0.2
		c-1.4,0-2.8,0.1-3.9,0.1C352,243.9,354.1,243.9,356.2,243.9z"/>
	<path d="M362.6,243.8C358.3,244.1,367,243.8,362.6,243.8L362.6,243.8z"/>
	<path d="M341.4,245.6c-0.2,0-0.3,0-0.5,0c-0.5,0-1,0-1.5,0C340.1,245.6,340.7,245.6,341.4,245.6z"/>
	<path d="M300.8,244.8c2.9,0,5.8,0,8.6-0.1c-5.8,0-11.8,0.1-16.6,0.2c0.7,0,1.5,0,2.2,0
		C296.4,244.9,298.6,244.8,300.8,244.8z"/>
	<path d="M364.2,245.4c-7.9,0.1-15.7,0.2-23.3,0.3c-15.3,0-30.1,0.1-43.3,0.3c-11.7,0.2-32.1,0.2-43.8,0.7
		c1.3,0,2.5,0,3.6,0c-1.7,0-3.3,0.1-4.8,0.1c-19.3,0.1-38.2,0.2-57.9,0.2c-2.9,0-5.1,0.1-8,0.1c-3,0-5.9,0-8.8,0c0,0,0,0,0.1,0
		c-12,0-23.9,0.1-36.3,0.2c-5.8,0-11.7,0-17.5,0c-2.2,0-2.2-0.1-3.6-0.2c-5.8-0.2-10.2-0.3-16.8-0.3c0,0,0-0.1,0-0.1
		c-1,0-1.9,0-2.6,0c3.1-0.3,11.1-0.5,2.7-0.7l0,0c0.5,0,0.9,0,1.3,0c0,0,0.1,0,0.1,0c0,0,0,0,0,0c2,0,3.2-0.1,4.4-0.2
		c-1.3,0-2.6,0-3.8,0c0.2,0,0.4-0.1,0.3-0.1c0.1,0,0.2,0,0.3,0c0.6,0,1,0,1,0c0.2,0,0.3,0,0.4-0.1c3.4-0.1,8.6-0.2,7.6-0.3
		c-0.8-0.1-3.2,0-6,0c-0.2,0-0.4,0-0.6,0c3.6,0,0-0.2,2.2-0.2c2.9,0,5.8,0,8.8,0c11.9,0,21.9,0,33.6-0.1c0.5,0,1,0,1.5,0
		c5.7,0,11,0,16.5,0c-0.4,0-0.7,0-1.1,0.1c4.5,0,8.9,0,13.4,0c11-0.1,21.9-0.2,33.6-0.3c12.2,0,24-0.1,36.4-0.2
		c-5.1,0.1-10.1,0.1-15.4,0.1c-2.3,0-4.7,0-6.9,0c2.3,0,4.6,0,6.9,0c9,0,18.2,0,25.2-0.2c0.8,0,0.8,0,1.5,0c5.1,0,10.2,0,14.6-0.1
		c0,0,2.2,0,1.5-0.1c4.4,0,9.5,0,13.9-0.1c1.9,0,3.8-0.1,5.7-0.1c15.7-0.2,31.2-0.3,48-0.5c4.2,0,9,0,13.3,0
		c-6.2,0.1-12.7,0.2-19.2,0.2c-6.3,0-12.4,0-17.4,0.1c-1.2,0-2.3,0-3.5,0.1c7-0.1,14-0.1,20.9-0.2c3.7,0,7.6,0,11.3,0
		c-0.1,0-0.2,0-0.2,0c-3,0-5.9,0.1-8.9,0.1c-5.6,0-11.1,0-15.7,0.1c-0.6,0-1.2,0-1.7,0c-1.2,0-2.3,0-3.5,0.1c4.3,0,8.7-0.1,13-0.1
		c2.7,0,5.3,0,8-0.1c1.7,0,3.3,0,5,0c-0.2,0-0.4,0-0.5,0c-1.5,0-5.5,0.4-3.4,0.5c11.2,0,27-0.2,27-0.1c0.7,0.1-18.5,0.3-17.8,0.3
		c1.1,0,2.2,0,3.2,0c-1,0-2,0-3,0.1c-2.2,0-5.1,0-6.6,0.1c-5.1,0.2-11,0.1-16.8,0.2c-3.7,0.1-8,0.2-12.4,0.3c0,0.1-2.2,0-1.5,0.1
		c-4.1,0-8.9,0-10.7,0.2c-0.1,0-0.2,0-0.3,0c-0.3,0-0.7,0-1.1,0c-6.8,0-11.6,0.1-17.8,0.2c-2.1,0-4.3,0-6.5,0c1.5,0,3.7,0,5.1,0
		c0.5,0,1,0,1.4,0c5.5,0,10.8-0.1,16.1-0.2c0.4,0,1.1,0,1.8-0.1c0.4,0,0.8,0,1.1,0c0.1,0,0.2,0,0.3,0c5-0.1,10.7-0.1,15-0.2
		c8.1-0.1,16.7,0,25,0c-4.1,0-8.2,0.1-12.1,0.2c5,0,9.7-0.1,14.2-0.2c0.7,0,1.4,0,2.1,0h4.4c-1.4,0-2.7,0-4.1,0
		c2.7,0,5.4-0.1,8.1-0.1c14.6-0.1,29.7-0.2,44.5-0.2c-0.3,0-0.6,0.1-1,0.1c-7.1,0-14.3,0-20.1,0.2c4.1,0,7,0,11-0.1c0,0,0,0-0.3,0
		c2.5,0,5.5-0.1,8.4-0.1c-0.9,0.1-2,0.2-3,0.2c-1.5,0.1-3.7,0.1-5.8,0.1c-9.5,0-18.4,0-27.7,0.1c-8.3,0-16.6,0-24.8,0
		C349.5,245.6,356.9,245.5,364.2,245.4z M119.3,246.1c0.8,0,1.5,0,2.3,0c-0.1,0-0.2,0-0.4,0C120.5,246.1,119.8,246.1,119.3,246.1z
		 M136.4,246.2c-5,0-11.6,0-18,0.1c0,0-0.1,0-0.1,0C123.7,246.3,130.3,246.2,136.4,246.2z M156.4,246.8c0,0-0.1,0-0.1,0l0,0
		C156.3,246.8,156.3,246.8,156.4,246.8z M245.3,245.8c-5.8,0.2-13.1,0.2-20.4,0.2c-2.2,0-4.4,0.1-7.3,0.1c-3.6,0-5.8,0.1-8.8,0.1
		l2.2,0.1c-5.1,0-8,0.2-13.1,0.1c0,0-0.7,0.1-1.5,0.1c-3.6,0-7.3,0-10.2,0c-3.6,0-7.3,0-10.2,0.1c-0.7,0-2.2,0.1-3.6,0.1
		c-1.8,0-3.6,0-5.3,0c0.1,0,0.1,0,0.2,0c1.5,0,2.9,0,4.4,0c4.4-0.1,9.5-0.1,13.9-0.2c11-0.1,21.2-0.2,31.4-0.3
		c2.2,0,4.4-0.1,6.6-0.1c6.6-0.1,14.6-0.1,19-0.3C243.1,245.9,244.6,245.9,245.3,245.8z M253.5,244.6c-7.7,0.1-16.2,0.2-23.5,0.2
		c-5.8,0-22.6,0.2-19.7,0.5C217.5,244.6,258.5,245.2,253.5,244.6z M314.3,244c-3.1,0-6,0.1-9.5,0.1C308,244.1,311.2,244.1,314.3,244
		z M283.2,245.2c9.5-0.2,19.7-0.2,29.2-0.3c7.3-0.1,15.3,0.1,21.9-0.2c0,0,0-0.1,0-0.1l-0.7,0c-2.6,0-4.6-0.1-6.8-0.1
		c0.1,0,0.2,0,0.4,0c-0.2,0-0.4,0-0.7,0c-1.4,0-2.9,0-4.6,0c-0.8,0-1.6,0-2.4,0c-9.1,0-18.5,0.1-26.8,0.3c-5.1,0.1-9.5,0.2-14.6,0.3
		C279.6,245.2,281.8,245.3,283.2,245.2z"/>
	<path d="M350.7,245.3c3.2,0,6.3-0.1,9.5-0.1c2.5,0,4.9-0.1,7.4-0.1c11.7-0.2,25.4-0.1,38-0.2c0.4-0.1,0.4-0.2,0-0.3
		c-13.7-0.1-27.3,0.1-41,0c-0.1,0-0.2,0-0.3,0c-5.8,0.2-15.3,0.1-22.6,0.3c-7.3,0.2-14.6,0.2-21.9,0.4
		C330.3,245.3,340.3,245.2,350.7,245.3z"/>
	<path d="M265.6,246.7c2.9,0,5.7,0,8.6,0c8.1-0.1,15.2-0.2,22.5-0.3c-5.4,0-10.8,0-16.2,0
		C275.1,246.4,270.5,246.6,265.6,246.7z"/>
	<path d="M302.7,246.3c-2,0-4,0.1-5.9,0.1c8,0,15.8-0.1,23.7-0.1c13-0.1,25.9-0.2,38.9-0.4c1.5,0,2.9,0,4.4,0
		c-24.1,0-48.1-0.1-68.6,0.3c-0.4,0-0.8,0-1.2,0c9.7,0,19.4-0.1,29-0.1C316.1,246.1,309.4,246.2,302.7,246.3z"/>
	<path d="M347.6,245.3c0.7,0,1.4,0,2.1,0c0.8,0,1.6,0,2.4,0c-0.5,0-1,0-1.5,0C349.7,245.3,348.6,245.3,347.6,245.3z"/>
	<path d="M326.8,244.6c-0.1,0-0.2,0-0.3,0c-2.3,0-4.7,0-7,0c-3.3,0-6.7,0.1-10.2,0.1
		C315.7,244.7,321.9,244.7,326.8,244.6z"/>
	<path d="M306.6,243.9c-0.7,0-2.2,0-2.9,0c-0.4,0-0.9,0-1.3,0c0.7,0,1.4,0,2.1,0L306.6,243.9z"/>
	<path d="M263.5,244.3c12.9-0.1,25.1-0.2,37.1-0.3c0.6,0,1.2,0,1.8-0.1c-8.1,0-16.1,0-23.5,0.2c-1.5,0-3.7,0.1-5.1,0.1
		c-6.9,0-13.5,0.1-20,0.2c3.1,0,6.3,0,9.5-0.1C263.3,244.3,263.4,244.3,263.5,244.3z"/>
</g>
</svg>
