<svg xmlns="http://www.w3.org/2000/svg" width="60" height="60" viewBox="0 0 60 60">
    <path id="Icon_awesome-plus-circle" data-name="Icon awesome-plus-circle" transform="translate(-0.563 -0.563)" fill="#fff"
          d="M30.563.563a30,30,0,1,0,30,30A29.995,29.995,0,0,0,30.563.563ZM47.982,33.95A1.456,1.456,0,0,1,46.53,35.4H35.4V46.53a1.456,1.456,0,0,1-1.452,1.452H27.175a1.456,1.456,0,0,1-1.452-1.452V35.4H14.595a1.456,1.456,0,0,1-1.452-1.452V27.175a1.456,1.456,0,0,1,1.452-1.452H25.724V14.595a1.456,1.456,0,0,1,1.452-1.452H33.95A1.456,1.456,0,0,1,35.4,14.595V25.724H46.53a1.456,1.456,0,0,1,1.452,1.452Z" 
    />
</svg>
